<?xml version="1.0" encoding="UTF-8" standalone="no"?>
<!-- Created with Inkscape (http://www.inkscape.org/) -->

<svg
   xmlns:dc="http://purl.org/dc/elements/1.1/"
   xmlns:cc="http://creativecommons.org/ns#"
   xmlns:rdf="http://www.w3.org/1999/02/22-rdf-syntax-ns#"
   xmlns:svg="http://www.w3.org/2000/svg"
   xmlns="http://www.w3.org/2000/svg"
   xmlns:sodipodi="http://sodipodi.sourceforge.net/DTD/sodipodi-0.dtd"
   xmlns:inkscape="http://www.inkscape.org/namespaces/inkscape"
   width="210mm"
   height="297mm"
   viewBox="0 0 744.09448819 1052.3622047"
   id="svg2"
   version="1.1"
   inkscape:version="0.91 r13725"
   sodipodi:docname="underline.svg">
  <defs
     id="defs4" />
  <sodipodi:namedview
     id="base"
     pagecolor="#ffffff"
     bordercolor="#666666"
     borderopacity="1.0"
     inkscape:pageopacity="0.0"
     inkscape:pageshadow="2"
     inkscape:zoom="0.56916686"
     inkscape:cx="251.9253"
     inkscape:cy="505.81746"
     inkscape:document-units="px"
     inkscape:current-layer="layer1"
     showgrid="false"
     inkscape:window-width="1680"
     inkscape:window-height="935"
     inkscape:window-x="0"
     inkscape:window-y="1"
     inkscape:window-maximized="1" />
  <metadata
     id="metadata7">
    <rdf:RDF>
      <cc:Work
         rdf:about="">
        <dc:format>image/svg+xml</dc:format>
        <dc:type
           rdf:resource="http://purl.org/dc/dcmitype/StillImage" />
        <dc:title></dc:title>
      </cc:Work>
    </rdf:RDF>
  </metadata>
  <g
     inkscape:label="Layer 1"
     inkscape:groupmode="layer"
     id="layer1">
    <path
       style="fill:#000000;fill-opacity:1;fill-rule:nonzero;stroke:none;stroke-width:1px;stroke-linecap:butt;stroke-linejoin:miter;stroke-opacity:1"
       id="path3831"
       d="m 93.146038,261.78544 c 40.013122,-8.78799 80.432052,-15.62414 120.856272,-22.25679 48.52229,-7.54516 97.41008,-12.35049 146.27111,-17.04181 42.47718,-4.07838 58.30382,-5.59061 100.51576,-8.45352 15.55767,-1.05516 31.13036,-1.87585 46.69553,-2.81377 53.20473,-2.07707 106.76431,-5.73475 159.86969,0.18158 5.51958,0.61493 10.99641,1.56676 16.49462,2.35014 4.20924,1.00464 8.46459,1.83264 12.62771,3.01392 3.68361,1.04521 18.14957,5.07245 17.54751,11.64683 -0.22876,2.49801 -1.27718,5.35112 -3.37532,6.72597 -16.27774,10.66637 -33.86697,19.18264 -50.80045,28.77395 -4.79183,1.44268 -9.53137,3.0721 -14.3755,4.32802 -24.79206,6.42779 -50.29606,10.16755 -75.61698,13.73163 -27.79345,3.9121 -48.70645,6.3157 -76.87427,9.74792 -64.70561,8.18809 -129.53546,15.44574 -194.08202,24.85608 -43.90454,6.40091 -49.295,7.65175 -92.1424,15.15779 -56.87661,10.19834 -113.485197,22.38548 -168.898113,38.8551 11.387017,-7.13085 -27.9790574,11.00749 -21.539179,7.05662 13.107765,-8.04161 27.121094,-14.5291 40.312979,-22.43196 1.42815,-0.85556 1.741398,-3.2387 3.336064,-3.71686 4.619823,-1.38525 9.598362,-0.9716 14.380869,-1.59556 7.337833,-0.95734 14.650511,-2.09851 21.975767,-3.14777 49.413633,-8.18399 98.775473,-16.777 148.503563,-22.8774 25.11122,-3.08052 56.12393,-6.11647 81.44252,-8.69546 35.81607,-2.48445 71.69269,-7.96519 107.69736,-6.26439 12.2146,0.577 15.65902,1.52167 26.96328,3.5419 7.37702,1.76982 20.48534,5.05231 18.30354,15.67969 -1.11322,5.42236 -4.85585,7.58775 -8.66078,11.12759 -3.41785,2.08902 -6.7484,4.32808 -10.25356,6.26705 -17.90016,9.90196 -35.72431,19.96114 -53.95056,29.24921 -5.48994,2.79766 -29.19352,11.29112 -34.40941,13.15888 -17.55902,6.28773 -21.37159,7.49372 -39.06195,13.48579 -29.7868,9.8207 -60.25828,17.73579 -89.26729,29.77371 -2.23311,1.25956 -8.93902,5.02649 -6.69932,3.77867 13.46864,-7.50388 26.71454,-15.41974 40.38627,-22.54692 1.07966,-0.56284 2.42293,-0.55305 3.63078,-0.3995 4.33629,0.55126 8.54696,1.87464 12.87353,2.49767 19.22999,2.76913 32.01066,3.20846 52.11999,4.60926 53.50604,2.9319 107.18267,3.1961 160.69194,0.17002 33.47215,-1.89294 44.66859,-3.32179 77.27951,-6.53614 0,0 -32.10303,23.75817 -32.10303,23.75817 l 0,0 c -39.27561,3.03985 -78.51689,6.02698 -117.91085,7.0784 -33.00241,0.88083 -49.31278,0.48705 -82.14795,0.15235 -13.14092,-0.13395 -26.2816,-0.29065 -39.4224,-0.43597 -15.28021,-0.35948 -40.4692,-0.6358 -56.62419,-2.04035 -5.22541,-0.45431 -10.60998,-0.51462 -15.58355,-2.1804 -3.15,-1.05502 -10.48833,-3.42147 -8.13119,-5.7623 18.10125,-17.97591 30.8467,-23.33849 49.27992,-31.69752 28.54788,-10.48672 58.01371,-18.11667 86.88051,-27.64162 19.31892,-6.60033 38.68879,-13.16772 57.62205,-20.82991 5.68627,-2.3012 21.34006,-11.50338 16.91015,-7.26013 -7.57351,7.25438 -17.98223,10.81251 -26.70191,16.6393 -2.97968,1.99112 6.30422,-3.41015 9.45633,-5.11522 1.71888,-1.21093 10.67766,-6.43437 10.4971,-9.76331 -0.2631,-4.85089 -11.17857,-6.94898 -13.97316,-8.05906 -3.53458,-0.78546 -7.03391,-1.75099 -10.60375,-2.3564 -11.27211,-1.91165 -20.50726,-2.49288 -32.10967,-2.67269 -28.19886,-0.43701 -56.33205,2.02255 -84.43524,3.9079 -34.86765,3.06898 -44.85316,3.62042 -80.46738,8.17391 -51.40808,6.57282 -102.38868,15.91377 -153.1156,26.46077 -7.941905,1.44279 -15.859612,3.0258 -23.825715,4.32837 -5.769126,0.94334 -11.554316,2.98877 -17.371131,2.40793 -3.585352,-0.35801 -12.1798042,-2.64881 -9.533754,-5.09449 21.838765,-20.18503 39.063523,-25.91219 63.7769,-32.19171 53.46705,-14.00485 107.89852,-23.91776 162.33471,-33.3116 14.57798,-2.38706 29.13196,-4.92562 43.73394,-7.16118 80.9007,-12.38591 162.23435,-21.71768 243.25399,-33.25001 27.27038,-3.8473 52.15892,-7.16898 79.22958,-11.67861 26.50156,-4.41482 53.44407,-9.09423 79.10418,-17.29968 5.1826,-1.65726 10.18263,-3.83891 15.27395,-5.75837 -10.6724,6.57663 -21.65633,12.67265 -32.0172,19.72989 -1.47377,1.00385 3.69789,-0.40333 5.15421,-1.43233 2.03497,-1.43786 -1.32486,-3.89876 -4.58024,-5.58851 -6.17325,-3.20432 -12.99367,-4.71688 -19.61231,-6.61729 -5.10031,-0.96091 -10.17264,-2.08449 -15.30093,-2.88273 -50.58428,-7.87371 -102.10754,-5.97742 -153.05425,-4.28472 -15.33372,0.79177 -30.67522,1.44498 -46.00115,2.3753 -83.40262,5.06275 -166.73176,13.30698 -249.07543,27.69194 -13.00167,2.49636 -26.02686,4.87318 -39.00501,7.48909 -30.37256,6.12197 -60.497455,13.42485 -90.420812,21.44476 0,0 39.85122,-30.25911 39.85122,-30.25911 z"
       inkscape:connector-curvature="0" />
  </g>
</svg>
